mtllib materials.mtl
v 0.06242505 0.03167546 0.05283141
v 0.06218648 0.0005949736 0.04888856
v -0.04394418 0.007966161 -0.002794862
v -0.04370561 0.03904665 0.001147985
v 0.07625207 0.03510916 0.02492774
v -0.02987859 0.04248035 -0.02675569
v -0.03011715 0.01139998 -0.03069854
v 0.07601351 0.004028678 0.02098489
v 0.07541496 0.03475082 0.02860808
v 0.07194184 0.003698945 0.03091288
v -0.02713855 0.01000953 -0.03337157
v -0.02366543 0.04106152 -0.03567624
v 0.09216906 0.03093255 0.002410531
v -0.00691133 0.03724301 -0.06187391
v -0.01038444 0.006191134 -0.05956912
v 0.08869594 -0.0001194477 0.004715204
v 0.1132096 -0.02075565 -0.01794481
v 0.1228857 0.009042382 -0.01816308
v 0.03565717 0.03695786 -0.07407618
v 0.02598113 0.007159829 -0.07385802
v 0.09773961 -0.01553643 0.008795261
v 0.01051112 0.01237905 -0.04711783
v 0.02018715 0.04217708 -0.0473361
v 0.1074156 0.0142616 0.008577108
v 0.06659308 0.007506132 0.04394615
v 0.06476478 0.03838933 0.04889369
v -0.122732 0.03833139 -0.02003133
v -0.1209037 0.007448077 -0.02497888
v 0.05593883 0.002231598 0.07293344
v -0.131558 0.002173543 0.004008293
v -0.1333863 0.03305686 0.008955836
v 0.05411051 0.03311479 0.07788086
v -0.1150191 0.008972526 -0.02243149
v -0.1266874 0.0380131 -0.02098358
v -0.1752542 0.01978815 -0.04684031
v -0.1635858 -0.00925231 -0.04828811
v -0.127519 0.00255394 0.005571246
v -0.1760857 -0.01567078 -0.02028549
v -0.187754 0.01336968 -0.01883757
v -0.1391873 0.0315944 0.007019043
v 0.05307306 -0.03293216 -0.0700835
v 0.03776984 -0.03553975 -0.04286945
v 0.01516774 0.02661431 -0.04962361
v 0.03047095 0.02922189 -0.07683766
v 0.02789477 -0.0437392 -0.08527744
v 0.005292669 0.01841486 -0.0920316
v -0.01001055 0.01580727 -0.06481755
v 0.01259156 -0.0463469 -0.05806339
v 0.02291828 -0.03734255 -0.0520308
v 0.009889916 -0.03951132 -0.02362037
v -0.03485608 0.02701747 -0.03906107
v -0.02182771 0.02918637 -0.0674715
v 0.0001794398 -0.05537593 -0.06383491
v -0.04456656 0.01115286 -0.07927561
v -0.05759493 0.008984089 -0.05086517
v -0.01284893 -0.05754471 -0.03542447
v -0.0496673 -0.07685924 -0.05590534
v -0.06119237 -0.08289969 -0.02740479
v -0.04082534 0.01673973 0.001949072
v -0.02930027 0.0227803 -0.02655149
v -0.0781704 -0.06817937 -0.06559181
v -0.05780337 0.03146017 -0.03623796
v -0.06932844 0.02541959 -0.007737398
v -0.08969548 -0.07421982 -0.03709126
v 0.01630339 -0.03071404 0.07537723
v 0.01337004 0.0002933741 0.07198215
v -0.09157109 -0.01206362 0.04979312
v -0.08863774 -0.04307103 0.05318809
v 0.009542495 -0.02801716 0.1058502
v -0.09539863 -0.04037416 0.08366132
v -0.09833199 -0.009366751 0.08026624
v 0.006609142 0.002990246 0.1024554
v 0.1005621 -0.03933263 0.07842159
v 0.1059649 -0.008477449 0.0790267
v 0.0888359 -0.004662633 0.03743327
v 0.08343305 -0.03551769 0.03682828
v 0.02843979 -0.02730763 0.109226
v 0.01131077 -0.02349281 0.06763268
v 0.01671363 0.007362366 0.06823766
v 0.03384264 0.00354743 0.1098311
v 0.1442188 -0.02917743 0.003953338
v 0.1497409 0.01567328 0.0005683899
v 0.1059402 0.01950037 -0.02017725
v 0.1004181 -0.02535033 -0.0167923
v 0.1082537 -0.01887488 0.08178806
v 0.06445292 -0.01504779 0.06104231
v 0.06997503 0.02980292 0.05765736
v 0.1137758 0.02597582 0.078403
vn -0.4413292 -0.1095986 0.8906272
vn 0.4413292 0.1095986 -0.8906272
vn 0.897313 -0.06232256 0.4369729
vn -0.897313 0.06232256 -0.4369729
vn 0.007614524 0.9920202 0.125849
vn -0.007614524 -0.9920202 -0.125849
vn -0.534755 0.121875 0.836172
vn 0.534755 -0.121875 -0.836172
vn 0.8377043 -0.0533547 0.5435115
vn -0.8377043 0.0533547 -0.5435115
vn 0.1108543 0.9911104 -0.0735633
vn -0.1108543 -0.9911104 0.0735633
vn 0.4937698 -0.1665866 -0.8534872
vn -0.4937698 0.1665866 0.8534872
vn 0.8129023 -0.2601511 0.5210673
vn -0.8129023 0.2601511 -0.5210673
vn -0.3088385 -0.951089 0.00696385
vn 0.3088385 0.951089 -0.00696385
vn 0.3400614 0.1683519 -0.9252113
vn -0.3400614 -0.1683519 0.9252113
vn 0.9385909 0.0002904832 0.345032
vn -0.9385909 -0.0002904832 -0.345032
vn 0.05835547 -0.985727 -0.1579148
vn -0.05835547 0.985727 0.1579148
vn 0.3989701 0.2048661 -0.8937856
vn -0.3989701 -0.2048661 0.8937856
vn 0.8379259 0.3144339 0.4461072
vn -0.8379259 -0.3144339 -0.4461072
vn 0.3724288 -0.9269094 -0.04621295
vn -0.3724288 0.9269094 0.04621295
vn 0.8036371 0.3449391 0.4849583
vn -0.8036371 -0.3449391 -0.4849583
vn 0.3399826 -0.9349277 0.1015973
vn -0.3399826 0.9349277 -0.1015973
vn 0.4884458 0.08322997 -0.8686159
vn -0.4884458 -0.08322997 0.8686159
vn 0.7257754 0.5755863 0.3767634
vn -0.7257754 -0.5755863 -0.3767634
vn 0.548023 -0.8148058 0.1891094
vn -0.548023 0.8148058 -0.1891094
vn 0.4158377 0.06922403 -0.9068004
vn -0.4158377 -0.06922403 0.9068004
vn 0.9097582 -0.2770432 0.3091717
vn -0.9097582 0.2770432 -0.3091717
vn -0.1924118 -0.941316 -0.2773119
vn 0.1924118 0.941316 0.2773119
vn 0.3678556 0.1927985 -0.9096763
vn -0.3678556 -0.1927985 0.9096763
vn 0.2157933 -0.08607859 -0.9726375
vn -0.2157933 0.08607859 0.9726375
vn 0.97194 0.1144478 0.2055099
vn -0.97194 -0.1144478 -0.2055099
vn 0.09362621 -0.989693 0.1083603
vn -0.09362621 0.989693 -0.1083603
vn 0.9090067 -0.1515583 -0.3882486
vn -0.9090067 0.1515583 0.3882486
vn 0.3794321 -0.08450482 0.9213524
vn -0.3794321 0.08450482 -0.9213524
vn -0.1724475 -0.9848294 -0.01930936
vn 0.1724475 0.9848294 0.01930936
vn 0.4164617 -0.1192989 -0.9012921
vn -0.4164617 0.1192989 0.9012921
vn 0.9009497 -0.07872051 0.4267233
vn -0.9009497 0.07872051 -0.4267233
vn -0.1218579 -0.9897327 0.07469833
vn 0.1218579 0.9897327 -0.07469833
vt 0.1400508 0.1982211
vt 0.1374191 0.1965211
vt 0.1438366 0.186586
vt 0.1464684 0.1882859
vt -0.1400508 0.1982211
vt -0.1464684 0.1882859
vt -0.1438366 0.186586
vt -0.1374191 0.1965211
vt 0.2680739 -0.01704752
vt 0.2665361 -0.01431783
vt 0.2638064 -0.01585559
vt 0.2653441 -0.01858528
vt -0.2680739 -0.01704752
vt -0.2653441 -0.01858529
vt -0.2638064 -0.01585559
vt -0.2665361 -0.01431783
vt -0.1644603 -0.05086281
vt -0.1555464 -0.05863681
vt -0.1534872 -0.05627559
vt -0.162401 -0.0485016
vt 0.1644603 -0.05086281
vt 0.1624011 -0.0485016
vt 0.1534872 -0.05627559
vt 0.1555464 -0.05863681
vt 0.05096669 0.212862
vt 0.04877942 0.2106189
vt 0.05724765 0.2023617
vt 0.05943492 0.2046048
vt -0.05096669 0.2128621
vt -0.05943491 0.2046048
vt -0.05724765 0.2023617
vt -0.04877942 0.2106189
vt 0.2581715 -0.0185331
vt 0.2561863 -0.0161093
vt 0.2537625 -0.01809453
vt 0.2557477 -0.02051833
vt -0.2581715 -0.0185331
vt -0.2557477 -0.02051833
vt -0.2537625 -0.01809454
vt -0.2561863 -0.0161093
vt -0.1986396 -0.06906378
vt -0.1893977 -0.07644481
vt -0.1874425 -0.0739967
vt -0.1966844 -0.06661568
vt 0.1986396 -0.06906378
vt 0.1966844 -0.06661567
vt 0.1874425 -0.0739967
vt 0.1893977 -0.0764448
vt -0.04577356 0.1990458
vt -0.04744601 0.2016951
vt -0.05651977 0.195967
vt -0.05484733 0.1933177
vt 0.04577356 0.1990458
vt 0.05484732 0.1933177
vt 0.05651978 0.195967
vt 0.04744601 0.2016951
vt 0.2660939 0.01859588
vt 0.2684122 0.01648844
vt 0.2705197 0.01880676
vt 0.2682014 0.02091421
vt -0.2660939 0.01859588
vt -0.2682014 0.02091421
vt -0.2705197 0.01880676
vt -0.2684122 0.01648843
vt 0.1606558 -0.1129248
vt 0.1518421 -0.1190454
vt 0.1536292 -0.1216188
vt 0.1624429 -0.1154981
vt -0.1606558 -0.1129248
vt -0.1624429 -0.1154981
vt -0.1536292 -0.1216188
vt -0.1518421 -0.1190454
vt -0.1694442 0.1730828
vt -0.1722866 0.1744007
vt -0.1806894 0.1562775
vt -0.177847 0.1549596
vt 0.1694442 0.1730828
vt 0.177847 0.1549596
vt 0.1806894 0.1562775
vt 0.1722866 0.1744007
vt 0.266468 -0.0261385
vt 0.2678714 -0.02893963
vt 0.2706725 -0.02753618
vt 0.2692691 -0.02473507
vt -0.266468 -0.0261385
vt -0.2692691 -0.02473506
vt -0.2706725 -0.02753618
vt -0.2678714 -0.02893962
vt 0.163002 -0.0340063
vt 0.1494341 -0.04866808
vt 0.1517336 -0.05079603
vt 0.1653015 -0.03613425
vt -0.163002 -0.0340063
vt -0.1653015 -0.03613425
vt -0.1517336 -0.05079603
vt -0.1494341 -0.04866808
vt -0.1795326 0.1648892
vt -0.1826533 0.1651675
vt -0.183168 0.1593943
vt -0.1800474 0.1591161
vt 0.1795326 0.1648892
vt 0.1800474 0.1591161
vt 0.183168 0.1593943
vt 0.1826533 0.1651675
vt 0.2043796 -0.1114044
vt 0.204663 -0.1145246
vt 0.2077832 -0.1142412
vt 0.2074998 -0.111121
vt -0.2043796 -0.1114044
vt -0.2074998 -0.111121
vt -0.2077832 -0.1142412
vt -0.204663 -0.1145246
vt 0.196251 0.01513964
vt 0.1921904 0.01100375
vt 0.194426 0.008808787
vt 0.1984867 0.01294467
vt -0.196251 0.01513964
vt -0.1984867 0.01294467
vt -0.194426 0.008808786
vt -0.1921904 0.01100375
vt 0.1809998 -0.1041362
vt 0.1815992 -0.1072113
vt 0.1881244 -0.1059396
vt 0.1875251 -0.1028644
vt -0.1809998 -0.1041362
vt -0.1875251 -0.1028644
vt -0.1881244 -0.1059396
vt -0.1815992 -0.1072113
vt 0.2185447 0.01956167
vt 0.2162795 0.01739722
vt 0.2184439 0.01513202
vt 0.2207091 0.01729647
vt -0.2185447 0.01956166
vt -0.2207091 0.01729647
vt -0.2184439 0.01513202
vt -0.2162795 0.01739721
vt -0.1202753 0.1995861
vt -0.1267892 0.2009147
vt -0.1274154 0.1978448
vt -0.1209015 0.1965162
vt 0.1202753 0.1995861
vt 0.1209015 0.1965162
vt 0.1274154 0.1978448
vt 0.1267892 0.2009147
vt 0.1006555 -0.1610287
vt 0.1003611 -0.1641478
vt 0.10849 -0.1649151
vt 0.1087844 -0.1617959
vt -0.1006555 -0.1610287
vt -0.1087843 -0.1617959
vt -0.10849 -0.1649151
vt -0.1003611 -0.1641478
vt 0.240983 0.04534278
vt 0.2389121 0.04299179
vt 0.2412631 0.04092085
vt 0.243334 0.04327183
vt -0.240983 0.04534278
vt -0.243334 0.04327183
vt -0.2412631 0.04092085
vt -0.2389121 0.04299179
vt -0.1309616 0.1830936
vt -0.1390985 0.1824171
vt -0.1388389 0.1792948
vt -0.130702 0.1799713
vt 0.1309616 0.1830936
vt 0.130702 0.1799713
vt 0.1388389 0.1792948
vt 0.1390985 0.1824171
vt 0.2657871 0.02883265
vt 0.2676089 0.02628374
vt 0.2762205 0.03243881
vt 0.2743987 0.03498773
vt -0.2657871 0.02883265
vt -0.2743987 0.03498773
vt -0.2762205 0.0324388
vt -0.2676089 0.02628374
vt 0.09300847 -0.09310232
vt 0.09060641 -0.09511379
vt 0.09261788 -0.09751587
vt 0.09501994 -0.09550439
vt -0.09300847 -0.09310232
vt -0.09501995 -0.09550439
vt -0.09261788 -0.09751587
vt -0.09060641 -0.0951138
vt -0.1697331 0.1600384
vt -0.1777843 0.1669103
vt -0.1798183 0.1645273
vt -0.1717671 0.1576554
vt 0.1697331 0.1600384
vt 0.1717671 0.1576554
vt 0.1798183 0.1645273
vt 0.1777843 0.1669103
vt -0.1226719 0.141122
vt -0.1255179 0.142432
vt -0.1300323 0.132624
vt -0.1271863 0.131314
vt 0.1226719 0.141122
vt 0.1271863 0.131314
vt 0.1300323 0.132624
vt 0.1255179 0.142432
vt 0.2650658 -0.04946459
vt 0.2670891 -0.05185673
vt 0.2694812 -0.04983347
vt 0.267458 -0.04744133
vt -0.2650658 -0.04946459
vt -0.267458 -0.04744133
vt -0.2694812 -0.04983347
vt -0.2670891 -0.05185674
vt 0.2202865 -0.03232558
vt 0.2151255 -0.0418093
vt 0.2178775 -0.04330689
vt 0.2230385 -0.03382317
vt -0.2202865 -0.03232558
vt -0.2230385 -0.03382317
vt -0.2178775 -0.04330689
vt -0.2151255 -0.0418093
vt 0.1745423 0.2015204
vt 0.1745037 0.2046532
vt 0.1699896 0.2045974
vt 0.1700283 0.2014646
vt -0.1745423 0.2015204
vt -0.1700283 0.2014646
vt -0.1699896 0.2045974
vt -0.1745037 0.2046532
vt 0.2140569 0.03940948
vt 0.2185049 0.03283934
vt 0.2210993 0.03459574
vt 0.2166514 0.04116589
vt -0.2140569 0.03940948
vt -0.2166514 0.04116589
vt -0.2210993 0.03459575
vt -0.2185049 0.03283934
vt 0.1777417 -0.08588509
vt 0.1732275 -0.08592282
vt 0.1732938 -0.09385674
vt 0.177808 -0.09381899
vt -0.1777417 -0.08588509
vt -0.177808 -0.093819
vt -0.1732938 -0.09385674
vt -0.1732275 -0.08592282
vt -0.07393875 0.1899545
vt -0.07729495 0.1929993
vt -0.08056158 0.1893987
vt -0.07720537 0.1863538
vt 0.07393874 0.1899545
vt 0.07720537 0.1863538
vt 0.08056158 0.1893987
vt 0.07729495 0.1929993
vt 0.2607684 -0.009959303
vt 0.2667098 -0.01622662
vt 0.2699985 -0.01310896
vt 0.2640571 -0.006841651
vt -0.2607684 -0.009959305
vt -0.2640571 -0.006841653
vt -0.2699985 -0.01310896
vt -0.2667098 -0.01622661
vt 0.1977555 -0.06329171
vt 0.1943941 -0.06680405
vt 0.2006332 -0.07277498
vt 0.2039946 -0.06926263
vt -0.1977555 -0.06329171
vt -0.2039946 -0.06926263
vt -0.2006332 -0.07277498
vt -0.1943941 -0.06680406
o group1398897958
g mesh1398897958
usemtl mat18
f 4/4/1 3/3/1 2/2/1 1/1/1
f 8/8/2 7/7/2 6/6/2 5/5/2
f 2/12/3 8/11/3 5/10/3 1/9/3
f 6/16/4 7/15/4 3/14/4 4/13/4
f 5/20/5 6/19/5 4/18/5 1/17/5
f 3/24/6 7/23/6 8/22/6 2/21/6
f 12/28/7 11/27/7 10/26/7 9/25/7
f 16/32/8 15/31/8 14/30/8 13/29/8
f 10/36/9 16/35/9 13/34/9 9/33/9
f 14/40/10 15/39/10 11/38/10 12/37/10
f 13/44/11 14/43/11 12/42/11 9/41/11
f 11/48/12 15/47/12 16/46/12 10/45/12
f 20/52/13 19/51/13 18/50/13 17/49/13
f 24/56/14 23/55/14 22/54/14 21/53/14
f 18/60/15 24/59/15 21/58/15 17/57/15
f 22/64/16 23/63/16 19/62/16 20/61/16
f 21/68/17 22/67/17 20/66/17 17/65/17
f 19/72/18 23/71/18 24/70/18 18/69/18
f 28/76/19 27/75/19 26/74/19 25/73/19
f 32/80/20 31/79/20 30/78/20 29/77/20
f 26/84/21 32/83/21 29/82/21 25/81/21
f 30/88/22 31/87/22 27/86/22 28/85/22
f 29/92/23 30/91/23 28/90/23 25/89/23
f 27/96/24 31/95/24 32/94/24 26/93/24
f 36/100/25 35/99/25 34/98/25 33/97/25
f 40/104/26 39/103/26 38/102/26 37/101/26
f 34/108/27 40/107/27 37/106/27 33/105/27
f 38/112/28 39/111/28 35/110/28 36/109/28
f 37/116/29 38/115/29 36/114/29 33/113/29
f 35/120/30 39/119/30 40/118/30 34/117/30
f 44/124/31 43/123/31 42/122/31 41/121/31
f 48/128/32 47/127/32 46/126/32 45/125/32
f 42/132/33 48/131/33 45/130/33 41/129/33
f 46/136/34 47/135/34 43/134/34 44/133/34
f 45/140/35 46/139/35 44/138/35 41/137/35
f 43/144/36 47/143/36 48/142/36 42/141/36
f 52/148/37 51/147/37 50/146/37 49/145/37
f 56/152/38 55/151/38 54/150/38 53/149/38
f 50/156/39 56/155/39 53/154/39 49/153/39
f 54/160/40 55/159/40 51/158/40 52/157/40
f 53/164/41 54/163/41 52/162/41 49/161/41
f 51/168/42 55/167/42 56/166/42 50/165/42
f 60/172/43 59/171/43 58/170/43 57/169/43
f 64/176/44 63/175/44 62/174/44 61/173/44
f 58/180/45 64/179/45 61/178/45 57/177/45
f 62/184/46 63/183/46 59/182/46 60/181/46
f 61/188/47 62/187/47 60/186/47 57/185/47
f 59/192/48 63/191/48 64/190/48 58/189/48
f 68/196/49 67/195/49 66/194/49 65/193/49
f 72/200/50 71/199/50 70/198/50 69/197/50
f 66/204/51 72/203/51 69/202/51 65/201/51
f 70/208/52 71/207/52 67/206/52 68/205/52
f 69/212/53 70/211/53 68/210/53 65/209/53
f 67/216/54 71/215/54 72/214/54 66/213/54
f 76/220/55 75/219/55 74/218/55 73/217/55
f 80/224/56 79/223/56 78/222/56 77/221/56
f 74/228/57 80/227/57 77/226/57 73/225/57
f 78/232/58 79/231/58 75/230/58 76/229/58
f 77/236/59 78/235/59 76/234/59 73/233/59
f 75/240/60 79/239/60 80/238/60 74/237/60
f 84/244/61 83/243/61 82/242/61 81/241/61
f 88/248/62 87/247/62 86/246/62 85/245/62
f 82/252/63 88/251/63 85/250/63 81/249/63
f 86/256/64 87/255/64 83/254/64 84/253/64
f 85/260/65 86/259/65 84/258/65 81/257/65
f 83/264/66 87/263/66 88/262/66 82/261/66
