mtllib materials.mtl
v 0.0810194 0.130034 0.1664975
v 0.04853892 0.1290412 -0.01143911
v 0.08035898 0.111298 -0.02516261
v 0.1128395 0.1122908 0.152774
v -0.07137489 -0.1158923 0.01935905
v -0.03955483 -0.1336355 0.00563556
v -0.03889441 -0.1148995 0.1972957
v -0.007074356 -0.1326427 0.1835722
v 0.04968977 0.1282262 -0.007451236
v -0.00168848 0.1365271 -0.1806817
v 0.02860093 0.1202935 -0.1962112
v 0.07997918 0.1119924 -0.02298066
v -0.1214435 -0.108391 -0.1491524
v -0.0911541 -0.1246246 -0.1646819
v -0.07006526 -0.1166919 0.02407807
v -0.03977609 -0.1329257 0.008548588
vn 0.4558451 0.8856831 -0.08815193
vn -0.3657599 0.06230165 -0.9286217
vn -0.455848 -0.8856816 0.08815214
vn 0.3657596 -0.06230165 0.9286218
vn 0.8788839 -0.4501383 -0.1579196
vn -0.8788841 0.450138 0.1579195
vn 0.435866 0.8958601 -0.08634483
vn -0.4169865 0.08742412 -0.9046985
vn -0.4358701 -0.8958581 0.08634587
vn 0.416986 -0.08742393 0.9046987
vn 0.8497109 -0.4506976 -0.2736114
vn -0.849711 0.4506973 0.2736113
vt -0.1317547 0.1281288
vt -0.1141783 0.1324
vt -0.1143125 0.1362908
vt -0.1318889 0.1320197
vt 0.02514413 0.190852
vt 0.0420895 0.1692636
vt 0.04517597 0.1716365
vt 0.02823061 0.1932248
vt 0.1150022 0.1326475
vt 0.1325786 0.1283763
vt 0.1327128 0.1322672
vt 0.1151364 0.1365384
vt -0.03950619 0.1666142
vt -0.02256083 0.1882026
vt -0.02564731 0.1905755
vt -0.04259267 0.1689871
vt 0.12012 0.1169482
vt 0.1023304 0.1202199
vt 0.09809782 0.09310374
vt 0.1158874 0.08983199
vt -0.1166737 0.08974886
vt -0.09888411 0.0930206
vt -0.1031167 0.1201368
vt -0.1209063 0.1168651
vt -0.1143666 0.1363231
vt -0.09638844 0.1383135
vt -0.09624989 0.1420821
vt -0.114228 0.1400916
vt 0.02159176 0.1880193
vt 0.0385017 0.1664032
vt 0.04144001 0.168767
vt 0.02453007 0.1903831
vt 0.09709646 0.1379647
vt 0.1150746 0.1359742
vt 0.114936 0.1397428
vt 0.09695791 0.1417333
vt -0.03672119 0.1643894
vt -0.01981125 0.1860056
vt -0.02274957 0.1883694
vt -0.03965951 0.1667533
vt 0.1097306 0.1279426
vt 0.09171198 0.1295249
vt 0.09005128 0.1021306
vt 0.1080699 0.1005483
vt -0.108617 0.1004637
vt -0.09059837 0.1020459
vt -0.09225909 0.1294401
vt -0.1102777 0.1278579
o group1746660335
g mesh1746660335
usemtl mat21
f 4/4/1 3/3/1 2/2/1 1/1/1
f 3/8/2 6/7/2 5/6/2 2/5/2
f 6/12/3 8/11/3 7/10/3 5/9/3
f 8/16/4 4/15/4 1/14/4 7/13/4
f 1/24/6 2/23/6 5/22/6 7/21/6
usemtl mat9
f 8/20/5 6/19/5 3/18/5 4/17/5
o group31422297
g mesh31422297
usemtl mat21
f 12/28/7 11/27/7 10/26/7 9/25/7
f 11/32/8 14/31/8 13/30/8 10/29/8
f 14/36/9 16/35/9 15/34/9 13/33/9
f 16/40/10 12/39/10 9/38/10 15/37/10
f 9/48/12 10/47/12 13/46/12 15/45/12
usemtl mat9
f 16/44/11 14/43/11 11/42/11 12/41/11
