# This file uses centimeters as units for non-parametric coordinates.

mtllib carrot.mtl
v 4.220386 -0.000000 1.195192
v 4.220386 -0.747532 0.845128
v 4.220386 -1.097596 -0.000000
v 4.220386 -0.747532 -0.845128
v 4.220386 -0.000000 -1.195192
v 4.220386 0.747532 -0.845128
v 4.220386 1.097596 -0.000000
v 4.220386 0.747532 0.845128
v 2.610193 -0.000000 1.097596
v 2.610193 -0.727320 0.776118
v 2.610193 -1.048798 -0.000000
v 2.610193 -0.727319 -0.776118
v 2.610193 -0.000000 -1.097596
v 2.610193 0.727319 -0.776118
v 2.610193 1.048798 -0.000000
v 2.610193 0.727319 0.776117
vt 0.750000 0.250000
vt 0.676777 0.426777
vt 0.676777 0.426777
vt 0.750000 0.250000
vt 0.500000 0.500000
vt 0.500000 0.500000
vt 0.323223 0.426777
vt 0.323223 0.426777
vt 0.250000 0.250000
vt 0.250000 0.250000
vt 0.323223 0.073223
vt 0.323223 0.073223
vt 0.500000 0.000000
vt 0.500000 0.000000
vt 0.676777 0.073223
vt 0.676777 0.073223
vn -0.049624 -0.413883 0.908977
vn -0.049624 -0.413883 0.908977
vn -0.049624 -0.413883 0.908977
vn -0.049624 -0.413883 0.908977
vn -0.027988 -0.923518 0.382533
vn -0.027988 -0.923518 0.382533
vn -0.027988 -0.923518 0.382533
vn -0.027988 -0.923518 0.382533
vn -0.027988 -0.923518 -0.382533
vn -0.027988 -0.923518 -0.382533
vn -0.027988 -0.923518 -0.382533
vn -0.027988 -0.923518 -0.382533
vn -0.049624 -0.413883 -0.908977
vn -0.049624 -0.413883 -0.908977
vn -0.049624 -0.413883 -0.908976
vn -0.049624 -0.413883 -0.908976
vn -0.049624 0.413883 -0.908976
vn -0.049624 0.413883 -0.908977
vn -0.049624 0.413883 -0.908977
vn -0.049624 0.413883 -0.908977
vn -0.027988 0.923518 -0.382533
vn -0.027988 0.923518 -0.382533
vn -0.027988 0.923518 -0.382533
vn -0.027988 0.923518 -0.382533
vn -0.027988 0.923518 0.382533
vn -0.027988 0.923518 0.382533
vn -0.027988 0.923518 0.382533
vn -0.027988 0.923518 0.382534
vn -0.049624 0.413883 0.908976
vn -0.049624 0.413883 0.908976
vn -0.049624 0.413883 0.908976
vn -0.049624 0.413883 0.908976
vn 1.000000 -0.000000 -0.000000
vn 1.000000 -0.000000 -0.000000
vn 1.000000 -0.000000 -0.000000
vn 1.000000 -0.000000 -0.000000
vn 1.000000 -0.000000 -0.000000
vn 1.000000 -0.000000 -0.000000
vn 1.000000 -0.000000 -0.000000
vn 1.000000 -0.000000 -0.000000
vn -1.000000 -0.000000 0.000000
vn -1.000000 -0.000000 0.000000
vn -1.000000 -0.000000 0.000000
vn -1.000000 -0.000000 0.000000
vn -1.000000 -0.000000 0.000000
vn -1.000000 -0.000000 0.000000
vn -1.000000 -0.000000 0.000000
vn -1.000000 -0.000000 0.000000
usemtl lambert2SG
f 9/1/1 10/2/2 2/3/3 1/4/4
f 10/2/5 11/5/6 3/6/7 2/3/8
f 11/5/9 12/7/10 4/8/11 3/6/12
f 12/7/13 13/9/14 5/10/15 4/8/16
f 13/9/17 14/11/18 6/12/19 5/10/20
f 14/11/21 15/13/22 7/14/23 6/12/24
f 15/13/25 16/15/26 8/16/27 7/14/28
f 16/15/29 9/1/30 1/4/31 8/16/32
f 2/3/33 3/6/34 4/8/35 5/10/36 6/12/37 7/14/38 8/16/39 1/4/40
f 10/2/41 9/1/42 16/15/43 15/13/44 14/11/45 13/9/46 12/7/47 11/5/48
