# This file uses centimeters as units for non-parametric coordinates.

mtllib carrot.mtl
v 7.440772 -0.000000 1.390384
v 7.440772 0.787957 0.983150
v 7.440772 -0.787958 0.983150
v 7.440772 -1.195191 -0.000000
v 7.440772 -0.787957 -0.983150
v 7.440772 -0.000000 -1.390384
v 7.440772 0.787957 -0.983150
v 7.440772 1.195191 -0.000000
v 7.771487 -0.000000 1.239889
v 7.771487 0.681542 0.876733
v 7.771487 -0.681543 0.876733
v 7.771487 -1.044697 -0.000000
v 7.771487 -0.681543 -0.876733
v 7.771487 -0.000000 -1.239890
v 7.771487 0.681542 -0.876733
v 7.771487 1.044697 -0.000000
v 8.055175 -0.000000 0.458804
v 8.055175 0.324423 0.324423
v 8.055175 -0.324423 0.324423
v 8.055175 -0.458804 0.000000
v 8.055175 -0.324423 -0.324423
v 8.055175 -0.000000 -0.458804
v 8.055175 0.324423 -0.324423
v 8.055175 0.458804 0.000000
v 8.725273 0.000000 0.783522
v 8.725273 0.554034 0.554033
v 8.725273 -0.554033 0.554033
v 8.725273 -0.783521 0.000000
v 8.725273 -0.554033 -0.554033
v 8.725273 0.000000 -0.783521
v 8.725273 0.554034 -0.554033
v 8.725273 0.783522 0.000000
v 5.830579 -0.000000 1.292788
v 5.830579 0.767745 0.914139
v 5.830579 1.146393 -0.000000
v 5.830579 0.767745 -0.914139
v 5.830579 -0.000000 -1.292788
v 5.830579 -0.767745 -0.914139
v 5.830579 -1.146393 -0.000000
v 5.830579 -0.767745 0.914139
vt 0.676777 0.073223
vt 0.750000 0.250000
vt 0.676777 0.426777
vt 0.500000 0.500000
vt 0.323223 0.426777
vt 0.250000 0.250000
vt 0.323223 0.073223
vt 0.500000 0.000000
vt 0.676777 0.073223
vt 0.750000 0.250000
vt 0.750000 0.250000
vt 0.676777 0.073223
vt 0.676777 0.426777
vt 0.676777 0.426777
vt 0.500000 0.500000
vt 0.500000 0.500000
vt 0.323223 0.426777
vt 0.323223 0.426777
vt 0.250000 0.250000
vt 0.250000 0.250000
vt 0.323223 0.073223
vt 0.323223 0.073223
vt 0.500000 0.000000
vt 0.500000 0.000000
vt 0.750000 0.250000
vt 0.676777 0.073223
vt 0.676777 0.426777
vt 0.500000 0.500000
vt 0.323223 0.426777
vt 0.250000 0.250000
vt 0.323223 0.073223
vt 0.500000 0.000000
vt 0.676777 0.073223
vt 0.750000 0.250000
vt 0.676777 0.426777
vt 0.500000 0.500000
vt 0.323223 0.426777
vt 0.250000 0.250000
vt 0.323223 0.073223
vt 0.500000 0.000000
vt 0.676777 0.073223
vt 0.750000 0.250000
vt 0.500000 0.000000
vt 0.323223 0.073223
vt 0.250000 0.250000
vt 0.323223 0.426777
vt 0.500000 0.500000
vt 0.676777 0.426777
vn 1.000000 -0.000000 -0.000000
vn 1.000000 -0.000000 -0.000000
vn 1.000000 -0.000000 -0.000000
vn 1.000000 -0.000000 -0.000000
vn 1.000000 -0.000000 -0.000000
vn 1.000000 -0.000000 -0.000000
vn 1.000000 -0.000000 -0.000000
vn 1.000000 -0.000000 -0.000000
vn 0.407419 0.692820 0.594987
vn 0.427407 0.000000 0.904059
vn 0.427407 0.000000 0.904060
vn 0.407338 0.697677 0.589341
vn 0.407419 -0.692820 0.594987
vn 0.407338 -0.697677 0.589341
vn 0.414189 -0.910191 -0.000000
vn 0.414189 -0.910191 -0.000000
vn 0.407418 -0.692820 -0.594988
vn 0.407337 -0.697677 -0.589341
vn 0.427406 -0.000000 -0.904060
vn 0.427406 -0.000000 -0.904060
vn 0.407419 0.692820 -0.594987
vn 0.407338 0.697677 -0.589341
vn 0.414189 0.910191 0.000000
vn 0.414189 0.910191 0.000000
vn 0.918363 0.276999 0.282633
vn 0.936101 -0.000001 0.351731
vn 0.936101 -0.000001 0.351731
vn 0.913476 0.314380 0.258316
vn 0.918363 -0.277000 0.282633
vn 0.913476 -0.314381 0.258316
vn 0.900044 -0.435799 -0.000000
vn 0.900044 -0.435799 -0.000000
vn 0.918363 -0.276999 -0.282633
vn 0.913476 -0.314380 -0.258316
vn 0.936101 0.000001 -0.351731
vn 0.936101 0.000001 -0.351731
vn 0.918363 0.276999 -0.282633
vn 0.913476 0.314380 -0.258316
vn 0.900044 0.435799 -0.000000
vn 0.900044 0.435799 -0.000000
vn -0.408615 0.349278 0.843231
vn -0.408615 0.349278 0.843231
vn -0.408615 0.349278 0.843231
vn -0.408615 0.349278 0.843231
vn -0.408615 -0.349278 0.843231
vn -0.408615 -0.349278 0.843231
vn -0.408615 -0.349278 0.843231
vn -0.408615 -0.349278 0.843231
vn -0.408614 -0.843231 0.349278
vn -0.408614 -0.843231 0.349278
vn -0.408615 -0.843231 0.349278
vn -0.408614 -0.843231 0.349278
vn -0.408615 -0.843231 -0.349278
vn -0.408615 -0.843231 -0.349278
vn -0.408615 -0.843231 -0.349278
vn -0.408615 -0.843231 -0.349278
vn -0.408615 -0.349278 -0.843231
vn -0.408615 -0.349278 -0.843231
vn -0.408615 -0.349278 -0.843231
vn -0.408615 -0.349278 -0.843231
vn -0.408615 0.349278 -0.843231
vn -0.408615 0.349278 -0.843231
vn -0.408615 0.349278 -0.843231
vn -0.408615 0.349278 -0.843231
vn -0.408615 0.843231 -0.349278
vn -0.408615 0.843231 -0.349278
vn -0.408615 0.843231 -0.349278
vn -0.408615 0.843231 -0.349278
vn -0.408615 0.843231 0.349278
vn -0.408615 0.843231 0.349278
vn -0.408615 0.843231 0.349278
vn -0.408615 0.843231 0.349278
vn -0.048949 0.450356 0.891506
vn -0.048949 0.450356 0.891506
vn -0.048949 0.450356 0.891506
vn -0.048949 0.450356 0.891506
vn -0.027988 0.923518 0.382533
vn -0.027988 0.923518 0.382533
vn -0.027988 0.923518 0.382533
vn -0.027988 0.923518 0.382533
vn -0.027988 0.923518 -0.382533
vn -0.027988 0.923518 -0.382533
vn -0.027988 0.923518 -0.382533
vn -0.027988 0.923518 -0.382533
vn -0.048949 0.450356 -0.891506
vn -0.048949 0.450356 -0.891506
vn -0.048949 0.450356 -0.891506
vn -0.048949 0.450356 -0.891506
vn -0.048949 -0.450356 -0.891506
vn -0.048949 -0.450356 -0.891506
vn -0.048949 -0.450356 -0.891506
vn -0.048949 -0.450356 -0.891506
vn -0.027988 -0.923518 -0.382533
vn -0.027988 -0.923518 -0.382533
vn -0.027988 -0.923518 -0.382533
vn -0.027988 -0.923518 -0.382533
vn -0.027988 -0.923518 0.382533
vn -0.027988 -0.923518 0.382533
vn -0.027988 -0.923518 0.382533
vn -0.027988 -0.923518 0.382533
vn -0.048949 -0.450356 0.891506
vn -0.048949 -0.450356 0.891506
vn -0.048949 -0.450356 0.891506
vn -0.048949 -0.450356 0.891506
vn -1.000000 0.000000 0.000000
vn -1.000000 0.000000 0.000000
vn -1.000000 0.000000 0.000000
vn -1.000000 0.000000 0.000000
vn -1.000000 0.000000 0.000000
vn -1.000000 0.000000 0.000000
vn -1.000000 0.000000 0.000000
vn -1.000000 0.000000 0.000000
usemtl lambert3SG
f 26/1/1 25/2/2 27/3/3 28/4/4 29/5/5 30/6/6 31/7/7 32/8/8
usemtl lambert2SG
f 2/9/9 1/10/10 9/11/11 10/12/12
f 1/10/10 3/13/13 11/14/14 9/11/11
f 3/13/13 4/15/15 12/16/16 11/14/14
f 4/15/15 5/17/17 13/18/18 12/16/16
f 5/17/17 6/19/19 14/20/20 13/18/18
f 6/19/19 7/21/21 15/22/22 14/20/20
f 7/21/21 8/23/23 16/24/24 15/22/22
f 8/23/23 2/9/9 10/12/12 16/24/24
f 10/12/25 9/11/26 17/25/27 18/26/28
f 9/11/26 11/14/29 19/27/30 17/25/27
f 11/14/29 12/16/31 20/28/32 19/27/30
f 12/16/31 13/18/33 21/29/34 20/28/32
f 13/18/33 14/20/35 22/30/36 21/29/34
f 14/20/35 15/22/37 23/31/38 22/30/36
f 15/22/37 16/24/39 24/32/40 23/31/38
f 16/24/39 10/12/25 18/26/28 24/32/40
usemtl lambert3SG
f 18/33/41 17/34/42 25/2/43 26/1/44
f 17/34/45 19/35/46 27/3/47 25/2/48
f 19/35/49 20/36/50 28/4/51 27/3/52
f 20/36/53 21/37/54 29/5/55 28/4/56
f 21/37/57 22/38/58 30/6/59 29/5/60
f 22/38/61 23/39/62 31/7/63 30/6/64
f 23/39/65 24/40/66 32/8/67 31/7/68
f 24/40/69 18/33/70 26/1/71 32/8/72
usemtl lambert2SG
f 34/41/73 33/42/74 1/10/75 2/9/76
f 35/43/77 34/41/78 2/9/79 8/23/80
f 36/44/81 35/43/82 8/23/83 7/21/84
f 37/45/85 36/44/86 7/21/87 6/19/88
f 38/46/89 37/45/90 6/19/91 5/17/92
f 39/47/93 38/46/94 5/17/95 4/15/96
f 40/48/97 39/47/98 4/15/99 3/13/100
f 33/42/101 40/48/102 3/13/103 1/10/104
f 34/41/105 35/43/106 36/44/107 37/45/108 38/46/109 39/47/110 40/48/111 33/42/112
