# This file uses centimeters as units for non-parametric coordinates.

mtllib bowl.mtl
v 0.270598 0.180578 -0.270598
v 0.000000 0.180578 -0.382683
v -0.270598 0.180578 -0.270598
v -0.382683 0.180578 0.000000
v -0.270598 0.180578 0.270598
v 0.000000 0.180578 0.382683
v 0.270598 0.180578 0.270598
v 0.382683 0.180578 0.000000
v 0.500000 0.397351 -0.500000
v 0.000000 0.397351 -0.707107
v -0.500000 0.397351 -0.500000
v -0.707107 0.397351 0.000000
v -0.500000 0.397351 0.500000
v 0.000000 0.397351 0.707107
v 0.500000 0.397351 0.500000
v 0.707107 0.397351 0.000000
v 0.653281 0.721774 -0.653281
v 0.000000 0.721774 -0.923879
v -0.653281 0.721774 -0.653281
v -0.923879 0.721774 0.000000
v -0.653281 0.721774 0.653281
v 0.000000 0.721774 0.923879
v 0.653281 0.721774 0.653281
v 0.923880 0.721774 0.000000
v 0.707107 1.104458 -0.707107
v 0.000000 1.104458 -1.000000
v -0.707107 1.104458 -0.707107
v -1.000000 1.104458 0.000000
v -0.707107 1.104458 0.707107
v 0.000000 1.104458 1.000000
v 0.707107 1.104458 0.707107
v 1.000000 1.104458 0.000000
v 0.000000 0.104458 0.000000
v 0.707107 1.104458 -0.707107
v 0.000000 1.104458 -1.000000
v -0.707107 1.104458 -0.707107
v -1.000000 1.104458 0.000000
v -0.707107 1.104458 0.707107
v 0.000000 1.104458 1.000000
v 0.707107 1.104458 0.707107
v 1.000000 1.104458 0.000000
v 0.302424 0.087239 -0.302424
v 0.000000 0.087239 -0.427692
v -0.000000 0.327945 -0.787933
v 0.557153 0.327945 -0.557153
v -0.302424 0.087239 -0.302424
v -0.557153 0.327945 -0.557153
v -0.427692 0.087239 0.000000
v -0.787933 0.327945 0.000000
v -0.302424 0.087239 0.302424
v -0.557153 0.327945 0.557153
v -0.000000 0.087239 0.427692
v 0.000000 0.327945 0.787933
v 0.302424 0.087239 0.302424
v 0.557153 0.327945 0.557153
v 0.427692 0.087239 -0.000000
v 0.787933 0.327945 0.000000
v 0.000000 0.685227 -1.026661
v 0.725959 0.685227 -0.725959
v -0.725959 0.685227 -0.725959
v -1.026662 0.685227 0.000000
v -0.725959 0.685227 0.725959
v -0.000000 0.685227 1.026662
v 0.725959 0.685227 0.725959
v 1.026662 0.685227 -0.000000
v -0.000000 1.083400 -1.105863
v 0.781963 1.083400 -0.781963
v -0.781963 1.083400 -0.781963
v -1.105863 1.083400 0.000000
v -0.781963 1.083400 0.781963
v -0.000000 1.083400 1.105863
v 0.781963 1.083400 0.781963
v 1.105863 1.083400 -0.000000
v 0.000000 0.002166 -0.000000
v 0.000000 1.104458 -1.000000
v 0.707107 1.104458 -0.707107
v -0.707107 1.104458 -0.707107
v -1.000000 1.104458 0.000000
v -0.707107 1.104458 0.707107
v 0.000000 1.104458 1.000000
v 0.707107 1.104458 0.707107
v 1.000000 1.104458 0.000000
vt 0.000000 0.125000
vt 0.125000 0.125000
vt 0.250000 0.125000
vt 0.375000 0.125000
vt 0.500000 0.125000
vt 0.625000 0.125000
vt 0.750000 0.125000
vt 0.875000 0.125000
vt 1.000000 0.125000
vt 0.000000 0.250000
vt 0.125000 0.250000
vt 0.250000 0.250000
vt 0.375000 0.250000
vt 0.500000 0.250000
vt 0.625000 0.250000
vt 0.750000 0.250000
vt 0.875000 0.250000
vt 1.000000 0.250000
vt 0.000000 0.375000
vt 0.125000 0.375000
vt 0.250000 0.375000
vt 0.375000 0.375000
vt 0.500000 0.375000
vt 0.625000 0.375000
vt 0.750000 0.375000
vt 0.875000 0.375000
vt 1.000000 0.375000
vt 0.000000 0.500000
vt 0.125000 0.500000
vt 0.250000 0.500000
vt 0.375000 0.500000
vt 0.500000 0.500000
vt 0.625000 0.500000
vt 0.750000 0.500000
vt 0.875000 0.500000
vt 1.000000 0.500000
vt 0.062500 0.000000
vt 0.187500 0.000000
vt 0.312500 0.000000
vt 0.437500 0.000000
vt 0.562500 0.000000
vt 0.687500 0.000000
vt 0.812500 0.000000
vt 0.937500 0.000000
vt 0.000000 0.000000
vt 1.000000 0.000000
vt 1.000000 1.000000
vt 0.000000 1.000000
vt 0.000000 0.000000
vt 1.000000 0.000000
vt 1.000000 1.000000
vt 0.000000 1.000000
vt 0.000000 0.000000
vt 1.000000 0.000000
vt 1.000000 1.000000
vt 0.000000 1.000000
vt 0.000000 0.000000
vt 1.000000 0.000000
vt 1.000000 1.000000
vt 0.000000 1.000000
vt 0.000000 0.000000
vt 1.000000 0.000000
vt 1.000000 1.000000
vt 0.000000 1.000000
vt 0.000000 0.000000
vt 1.000000 0.000000
vt 1.000000 1.000000
vt 0.000000 1.000000
vt 0.000000 0.000000
vt 1.000000 0.000000
vt 1.000000 1.000000
vt 0.000000 1.000000
vt 0.000000 0.000000
vt 1.000000 0.000000
vt 1.000000 1.000000
vt 0.000000 1.000000
vt 0.000000 0.125000
vt 0.125000 0.125000
vt 0.125000 0.250000
vt 0.000000 0.250000
vt 0.250000 0.125000
vt 0.250000 0.250000
vt 0.375000 0.125000
vt 0.375000 0.250000
vt 0.500000 0.125000
vt 0.500000 0.250000
vt 0.625000 0.125000
vt 0.625000 0.250000
vt 0.750000 0.125000
vt 0.750000 0.250000
vt 0.875000 0.125000
vt 0.875000 0.250000
vt 1.000000 0.125000
vt 1.000000 0.250000
vt 0.125000 0.375000
vt 0.000000 0.375000
vt 0.250000 0.375000
vt 0.375000 0.375000
vt 0.500000 0.375000
vt 0.625000 0.375000
vt 0.750000 0.375000
vt 0.875000 0.375000
vt 1.000000 0.375000
vt 0.125000 0.500000
vt 0.000000 0.500000
vt 0.250000 0.500000
vt 0.375000 0.500000
vt 0.500000 0.500000
vt 0.625000 0.500000
vt 0.750000 0.500000
vt 0.875000 0.500000
vt 1.000000 0.500000
vt 0.062500 0.000000
vt 0.187500 0.000000
vt 0.312500 0.000000
vt 0.437500 0.000000
vt 0.562500 0.000000
vt 0.687500 0.000000
vt 0.812500 0.000000
vt 0.937500 0.000000
vt 0.000000 0.000000
vt 1.000000 0.000000
vt 1.000000 1.000000
vt 0.000000 1.000000
vt 0.000000 0.000000
vt 1.000000 0.000000
vt 1.000000 1.000000
vt 0.000000 1.000000
vt 0.000000 0.000000
vt 1.000000 0.000000
vt 1.000000 1.000000
vt 0.000000 1.000000
vt 0.000000 0.000000
vt 1.000000 0.000000
vt 1.000000 1.000000
vt 0.000000 1.000000
vt 0.000000 0.000000
vt 1.000000 0.000000
vt 1.000000 1.000000
vt 0.000000 1.000000
vt 0.000000 0.000000
vt 1.000000 0.000000
vt 1.000000 1.000000
vt 0.000000 1.000000
vt 0.000000 0.000000
vt 1.000000 0.000000
vt 1.000000 1.000000
vt 0.000000 1.000000
vt 0.000000 0.000000
vt 1.000000 0.000000
vt 1.000000 1.000000
vt 0.000000 1.000000
vt 1.000000 1.000000
vt 0.000000 1.000000
vt 1.000000 1.000000
vt 0.000000 1.000000
vt 1.000000 1.000000
vt 0.000000 1.000000
vt 1.000000 1.000000
vt 0.000000 1.000000
vt 1.000000 1.000000
vt 0.000000 1.000000
vt 1.000000 1.000000
vt 0.000000 1.000000
vt 1.000000 1.000000
vt 0.000000 1.000000
vt 1.000000 1.000000
vt 0.000000 1.000000
vn 0.224263 -0.810291 -0.541419
vn 0.224263 -0.810291 -0.541419
vn 0.224263 -0.810291 -0.541419
vn 0.224263 -0.810291 -0.541419
vn -0.224263 -0.810291 -0.541419
vn -0.224263 -0.810291 -0.541419
vn -0.224263 -0.810291 -0.541419
vn -0.224263 -0.810291 -0.541419
vn -0.541419 -0.810291 -0.224263
vn -0.541419 -0.810291 -0.224263
vn -0.541419 -0.810291 -0.224263
vn -0.541419 -0.810291 -0.224263
vn -0.541419 -0.810291 0.224263
vn -0.541419 -0.810291 0.224263
vn -0.541419 -0.810291 0.224263
vn -0.541419 -0.810291 0.224263
vn -0.224263 -0.810291 0.541419
vn -0.224263 -0.810291 0.541419
vn -0.224263 -0.810291 0.541419
vn -0.224263 -0.810291 0.541419
vn 0.224263 -0.810291 0.541419
vn 0.224263 -0.810291 0.541419
vn 0.224263 -0.810291 0.541419
vn 0.224263 -0.810291 0.541419
vn 0.541419 -0.810291 0.224263
vn 0.541419 -0.810291 0.224263
vn 0.541419 -0.810291 0.224263
vn 0.541419 -0.810291 0.224263
vn 0.541419 -0.810291 -0.224263
vn 0.541419 -0.810291 -0.224263
vn 0.541419 -0.810291 -0.224263
vn 0.541419 -0.810291 -0.224263
vn 0.325634 -0.525289 -0.786151
vn 0.325634 -0.525289 -0.786151
vn 0.325634 -0.525289 -0.786151
vn 0.325634 -0.525289 -0.786151
vn -0.325634 -0.525289 -0.786151
vn -0.325634 -0.525289 -0.786151
vn -0.325634 -0.525289 -0.786151
vn -0.325634 -0.525289 -0.786151
vn -0.786151 -0.525289 -0.325634
vn -0.786151 -0.525289 -0.325634
vn -0.786151 -0.525289 -0.325634
vn -0.786151 -0.525289 -0.325634
vn -0.786151 -0.525289 0.325634
vn -0.786151 -0.525289 0.325634
vn -0.786151 -0.525289 0.325634
vn -0.786151 -0.525289 0.325634
vn -0.325634 -0.525289 0.786151
vn -0.325634 -0.525289 0.786151
vn -0.325634 -0.525289 0.786151
vn -0.325634 -0.525289 0.786151
vn 0.325634 -0.525289 0.786151
vn 0.325635 -0.525289 0.786151
vn 0.325635 -0.525289 0.786151
vn 0.325635 -0.525289 0.786151
vn 0.786151 -0.525289 0.325634
vn 0.786151 -0.525289 0.325634
vn 0.786151 -0.525289 0.325634
vn 0.786151 -0.525289 0.325634
vn 0.786151 -0.525289 -0.325634
vn 0.786151 -0.525289 -0.325634
vn 0.786151 -0.525289 -0.325634
vn 0.786151 -0.525289 -0.325634
vn 0.376381 -0.180745 -0.908663
vn 0.376381 -0.180745 -0.908663
vn 0.376381 -0.180745 -0.908663
vn 0.376381 -0.180745 -0.908663
vn -0.376381 -0.180744 -0.908663
vn -0.376381 -0.180744 -0.908663
vn -0.376381 -0.180744 -0.908663
vn -0.376381 -0.180745 -0.908663
vn -0.908663 -0.180744 -0.376381
vn -0.908663 -0.180744 -0.376381
vn -0.908663 -0.180744 -0.376381
vn -0.908663 -0.180744 -0.376381
vn -0.908663 -0.180744 0.376381
vn -0.908663 -0.180744 0.376381
vn -0.908663 -0.180744 0.376381
vn -0.908663 -0.180744 0.376381
vn -0.376381 -0.180744 0.908663
vn -0.376381 -0.180744 0.908663
vn -0.376381 -0.180744 0.908663
vn -0.376381 -0.180744 0.908663
vn 0.376381 -0.180745 0.908663
vn 0.376381 -0.180745 0.908663
vn 0.376381 -0.180745 0.908663
vn 0.376381 -0.180745 0.908663
vn 0.908663 -0.180744 0.376381
vn 0.908663 -0.180744 0.376381
vn 0.908663 -0.180744 0.376381
vn 0.908663 -0.180744 0.376381
vn 0.908663 -0.180744 -0.376381
vn 0.908663 -0.180744 -0.376381
vn 0.908663 -0.180744 -0.376381
vn 0.908663 -0.180744 -0.376381
vn 0.080547 -0.977598 -0.194458
vn 0.080547 -0.977598 -0.194458
vn 0.080547 -0.977598 -0.194458
vn -0.080547 -0.977598 -0.194457
vn -0.080547 -0.977598 -0.194457
vn -0.080547 -0.977599 -0.194457
vn -0.194456 -0.977599 -0.080546
vn -0.194456 -0.977599 -0.080546
vn -0.194456 -0.977599 -0.080546
vn -0.194456 -0.977599 0.080547
vn -0.194456 -0.977599 0.080547
vn -0.194456 -0.977599 0.080547
vn -0.080547 -0.977599 0.194456
vn -0.080547 -0.977599 0.194456
vn -0.080547 -0.977599 0.194456
vn 0.080546 -0.977599 0.194457
vn 0.080546 -0.977599 0.194457
vn 0.080546 -0.977599 0.194457
vn 0.194457 -0.977599 0.080547
vn 0.194457 -0.977599 0.080547
vn 0.194457 -0.977599 0.080547
vn 0.194457 -0.977598 -0.080547
vn 0.194457 -0.977599 -0.080547
vn 0.194457 -0.977599 -0.080547
vn 0.080547 0.977599 -0.194457
vn 0.080547 0.977599 -0.194457
vn 0.080547 0.977599 -0.194457
vn 0.080547 0.977599 -0.194457
vn -0.080547 0.977599 -0.194457
vn -0.080547 0.977599 -0.194457
vn -0.080547 0.977599 -0.194457
vn -0.080547 0.977599 -0.194457
vn -0.194456 0.977599 -0.080546
vn -0.194456 0.977599 -0.080546
vn -0.194456 0.977599 -0.080546
vn -0.194456 0.977599 -0.080546
vn -0.194456 0.977599 0.080546
vn -0.194456 0.977599 0.080546
vn -0.194456 0.977599 0.080546
vn -0.194456 0.977599 0.080546
vn -0.080546 0.977599 0.194456
vn -0.080546 0.977599 0.194456
vn -0.080546 0.977599 0.194456
vn -0.080546 0.977599 0.194456
vn 0.080546 0.977599 0.194457
vn 0.080546 0.977599 0.194457
vn 0.080546 0.977599 0.194457
vn 0.080546 0.977599 0.194457
vn 0.194457 0.977599 0.080547
vn 0.194457 0.977598 0.080547
vn 0.194457 0.977599 0.080547
vn 0.194457 0.977598 0.080547
vn 0.194457 0.977599 -0.080547
vn 0.194457 0.977599 -0.080547
vn 0.194457 0.977599 -0.080547
vn 0.194456 0.977599 -0.080547
vn -0.224263 0.810291 0.541419
vn -0.224263 0.810291 0.541419
vn -0.224263 0.810291 0.541419
vn -0.224263 0.810291 0.541419
vn 0.224263 0.810291 0.541419
vn 0.224263 0.810291 0.541419
vn 0.224263 0.810291 0.541419
vn 0.224263 0.810291 0.541419
vn 0.541419 0.810291 0.224263
vn 0.541419 0.810291 0.224263
vn 0.541419 0.810291 0.224263
vn 0.541419 0.810291 0.224263
vn 0.541419 0.810291 -0.224263
vn 0.541419 0.810291 -0.224263
vn 0.541419 0.810291 -0.224263
vn 0.541419 0.810291 -0.224263
vn 0.224263 0.810291 -0.541419
vn 0.224263 0.810291 -0.541419
vn 0.224263 0.810291 -0.541419
vn 0.224263 0.810291 -0.541419
vn -0.224263 0.810291 -0.541419
vn -0.224263 0.810291 -0.541419
vn -0.224263 0.810291 -0.541419
vn -0.224263 0.810291 -0.541419
vn -0.541419 0.810291 -0.224263
vn -0.541419 0.810291 -0.224263
vn -0.541419 0.810291 -0.224263
vn -0.541419 0.810291 -0.224263
vn -0.541419 0.810291 0.224263
vn -0.541419 0.810291 0.224263
vn -0.541419 0.810291 0.224263
vn -0.541419 0.810291 0.224263
vn -0.325634 0.525289 0.786151
vn -0.325634 0.525289 0.786151
vn -0.325634 0.525289 0.786151
vn -0.325634 0.525289 0.786151
vn 0.325635 0.525289 0.786151
vn 0.325634 0.525289 0.786151
vn 0.325634 0.525289 0.786151
vn 0.325635 0.525289 0.786151
vn 0.786151 0.525289 0.325634
vn 0.786151 0.525289 0.325634
vn 0.786151 0.525289 0.325634
vn 0.786151 0.525289 0.325634
vn 0.786151 0.525289 -0.325634
vn 0.786151 0.525289 -0.325634
vn 0.786151 0.525289 -0.325634
vn 0.786151 0.525289 -0.325634
vn 0.325634 0.525289 -0.786151
vn 0.325634 0.525289 -0.786151
vn 0.325634 0.525289 -0.786151
vn 0.325634 0.525289 -0.786151
vn -0.325634 0.525289 -0.786151
vn -0.325634 0.525289 -0.786151
vn -0.325634 0.525289 -0.786151
vn -0.325634 0.525289 -0.786151
vn -0.786151 0.525289 -0.325634
vn -0.786151 0.525289 -0.325634
vn -0.786151 0.525289 -0.325634
vn -0.786151 0.525289 -0.325634
vn -0.786151 0.525289 0.325635
vn -0.786151 0.525289 0.325635
vn -0.786151 0.525289 0.325635
vn -0.786151 0.525289 0.325635
vn -0.376381 0.180744 0.908663
vn -0.376381 0.180744 0.908663
vn -0.376381 0.180744 0.908663
vn -0.376381 0.180744 0.908663
vn 0.376381 0.180744 0.908663
vn 0.376381 0.180744 0.908663
vn 0.376381 0.180744 0.908663
vn 0.376381 0.180744 0.908663
vn 0.908663 0.180744 0.376381
vn 0.908663 0.180744 0.376381
vn 0.908663 0.180744 0.376381
vn 0.908663 0.180744 0.376381
vn 0.908663 0.180744 -0.376381
vn 0.908663 0.180744 -0.376381
vn 0.908663 0.180744 -0.376381
vn 0.908663 0.180744 -0.376381
vn 0.376381 0.180744 -0.908663
vn 0.376381 0.180744 -0.908663
vn 0.376381 0.180744 -0.908663
vn 0.376381 0.180744 -0.908663
vn -0.376381 0.180744 -0.908663
vn -0.376381 0.180744 -0.908663
vn -0.376381 0.180744 -0.908663
vn -0.376381 0.180744 -0.908663
vn -0.908663 0.180745 -0.376381
vn -0.908663 0.180745 -0.376381
vn -0.908663 0.180745 -0.376381
vn -0.908663 0.180745 -0.376381
vn -0.908663 0.180744 0.376381
vn -0.908663 0.180744 0.376381
vn -0.908663 0.180744 0.376381
vn -0.908663 0.180744 0.376381
vn -0.080546 0.977599 0.194457
vn -0.080547 0.977599 0.194457
vn -0.080547 0.977599 0.194457
vn 0.080547 0.977599 0.194457
vn 0.080547 0.977599 0.194457
vn 0.080546 0.977599 0.194457
vn 0.194457 0.977599 0.080547
vn 0.194457 0.977599 0.080547
vn 0.194457 0.977599 0.080547
vn 0.194457 0.977599 -0.080547
vn 0.194457 0.977599 -0.080547
vn 0.194457 0.977599 -0.080547
vn 0.080547 0.977599 -0.194457
vn 0.080547 0.977599 -0.194456
vn 0.080547 0.977599 -0.194457
vn -0.080547 0.977599 -0.194457
vn -0.080547 0.977599 -0.194456
vn -0.080547 0.977599 -0.194457
vn -0.194457 0.977599 -0.080547
vn -0.194457 0.977599 -0.080547
vn -0.194457 0.977599 -0.080547
vn -0.194457 0.977599 0.080547
vn -0.194457 0.977599 0.080547
vn -0.194457 0.977599 0.080547
vn 0.000000 0.000000 0.000000
vn 0.000000 0.000000 0.000000
vn 0.000000 0.000000 0.000000
vn 0.000000 0.000000 0.000000
vn 0.000000 0.000000 0.000000
vn 0.000000 0.000000 0.000000
vn 0.000000 0.000000 0.000000
vn 0.000000 0.000000 0.000000
vn 0.000000 0.000000 0.000000
vn 0.000000 0.000000 0.000000
vn 0.000000 0.000000 0.000000
vn 0.000000 0.000000 0.000000
vn 0.000000 0.000000 0.000000
vn 0.000000 0.000000 0.000000
vn 0.000000 0.000000 0.000000
vn 0.000000 0.000000 0.000000
vn 0.000000 0.000000 0.000000
vn 0.000000 0.000000 0.000000
vn 0.000000 0.000000 0.000000
vn 0.000000 0.000000 0.000000
vn 0.000000 0.000000 0.000000
vn 0.000000 0.000000 0.000000
vn 0.000000 0.000000 0.000000
vn 0.000000 0.000000 0.000000
vn 0.000000 0.000000 0.000000
vn 0.000000 0.000000 0.000000
vn 0.000000 0.000000 0.000000
vn 0.000000 0.000000 0.000000
vn 0.000000 0.000000 0.000000
vn 0.000000 0.000000 0.000000
vn 0.000000 0.000000 0.000000
vn 0.000000 0.000000 0.000000
vn 0.000000 0.000000 -0.000000
vn 0.000000 0.000000 -0.000000
vn 0.000000 0.000000 -0.000000
vn 0.000000 0.000000 -0.000000
vn -0.000000 0.000000 -0.000000
vn -0.000000 0.000000 -0.000000
vn -0.000000 0.000000 -0.000000
vn -0.000000 0.000000 -0.000000
vn -0.000000 0.000000 -0.000000
vn -0.000000 0.000000 -0.000000
vn -0.000000 0.000000 -0.000000
vn -0.000000 0.000000 -0.000000
vn -0.000000 0.000000 0.000000
vn -0.000000 0.000000 0.000000
vn -0.000000 0.000000 0.000000
vn -0.000000 0.000000 0.000000
vn -0.000000 0.000000 0.000000
vn -0.000000 0.000000 0.000000
vn -0.000000 0.000000 0.000000
vn -0.000000 0.000000 0.000000
vn 0.000000 0.000000 0.000000
vn 0.000000 0.000000 0.000000
vn 0.000000 0.000000 0.000000
vn 0.000000 0.000000 0.000000
vn 0.000000 0.000000 0.000000
vn 0.000000 0.000000 0.000000
vn 0.000000 0.000000 0.000000
vn 0.000000 0.000000 0.000000
vn 0.000000 0.000000 -0.000000
vn 0.000000 0.000000 -0.000000
vn 0.000000 0.000000 -0.000000
vn 0.000000 0.000000 -0.000000
usemtl lambert2SG
f 42/1/1 43/2/2 44/11/3 45/10/4
f 43/2/5 46/3/6 47/12/7 44/11/8
f 46/3/9 48/4/10 49/13/11 47/12/12
f 48/4/13 50/5/14 51/14/15 49/13/16
f 50/5/17 52/6/18 53/15/19 51/14/20
f 52/6/21 54/7/22 55/16/23 53/15/24
f 54/7/25 56/8/26 57/17/27 55/16/28
f 56/8/29 42/9/30 45/18/31 57/17/32
f 45/10/33 44/11/34 58/20/35 59/19/36
f 44/11/37 47/12/38 60/21/39 58/20/40
f 47/12/41 49/13/42 61/22/43 60/21/44
f 49/13/45 51/14/46 62/23/47 61/22/48
f 51/14/49 53/15/50 63/24/51 62/23/52
f 53/15/53 55/16/54 64/25/55 63/24/56
f 55/16/57 57/17/58 65/26/59 64/25/60
f 57/17/61 45/18/62 59/27/63 65/26/64
f 59/19/65 58/20/66 66/29/67 67/28/68
f 58/20/69 60/21/70 68/30/71 66/29/72
f 60/21/73 61/22/74 69/31/75 68/30/76
f 61/22/77 62/23/78 70/32/79 69/31/80
f 62/23/81 63/24/82 71/33/83 70/32/84
f 63/24/85 64/25/86 72/34/87 71/33/88
f 64/25/89 65/26/90 73/35/91 72/34/92
f 65/26/93 59/27/94 67/36/95 73/35/96
f 43/2/97 42/1/98 74/37/99
f 46/3/100 43/2/101 74/38/102
f 48/4/103 46/3/104 74/39/105
f 50/5/106 48/4/107 74/40/108
f 52/6/109 50/5/110 74/41/111
f 54/7/112 52/6/113 74/42/114
f 56/8/115 54/7/116 74/43/117
f 42/9/118 56/8/119 74/44/120
f 67/45/121 66/46/122 75/153/123 76/154/124
f 66/49/125 68/50/126 77/155/127 75/156/128
f 68/53/129 69/54/130 78/157/131 77/158/132
f 69/57/133 70/58/134 79/159/135 78/160/136
f 70/61/137 71/62/138 80/161/139 79/162/140
f 71/65/141 72/66/142 81/163/143 80/164/144
f 72/69/145 73/70/146 82/165/147 81/166/148
f 73/73/149 67/74/150 76/167/151 82/168/152
f 1/77/153 9/80/154 10/79/155 2/78/156
f 2/78/157 10/79/158 11/82/159 3/81/160
f 3/81/161 11/82/162 12/84/163 4/83/164
f 4/83/165 12/84/166 13/86/167 5/85/168
f 5/85/169 13/86/170 14/88/171 6/87/172
f 6/87/173 14/88/174 15/90/175 7/89/176
f 7/89/177 15/90/178 16/92/179 8/91/180
f 8/91/181 16/92/182 9/94/183 1/93/184
f 9/80/185 17/96/186 18/95/187 10/79/188
f 10/79/189 18/95/190 19/97/191 11/82/192
f 11/82/193 19/97/194 20/98/195 12/84/196
f 12/84/197 20/98/198 21/99/199 13/86/200
f 13/86/201 21/99/202 22/100/203 14/88/204
f 14/88/205 22/100/206 23/101/207 15/90/208
f 15/90/209 23/101/210 24/102/211 16/92/212
f 16/92/213 24/102/214 17/103/215 9/94/216
f 17/96/217 25/105/218 26/104/219 18/95/220
f 18/95/221 26/104/222 27/106/223 19/97/224
f 19/97/225 27/106/226 28/107/227 20/98/228
f 20/98/229 28/107/230 29/108/231 21/99/232
f 21/99/233 29/108/234 30/109/235 22/100/236
f 22/100/237 30/109/238 31/110/239 23/101/240
f 23/101/241 31/110/242 32/111/243 24/102/244
f 24/102/245 32/111/246 25/112/247 17/103/248
f 2/78/249 33/113/250 1/77/251
f 3/81/252 33/114/253 2/78/254
f 4/83/255 33/115/256 3/81/257
f 5/85/258 33/116/259 4/83/260
f 6/87/261 33/117/262 5/85/263
f 7/89/264 33/118/265 6/87/266
f 8/91/267 33/119/268 7/89/269
f 1/93/270 33/120/271 8/91/272
f 25/121/273 34/124/274 35/123/275 26/122/276
f 26/125/277 35/128/278 36/127/279 27/126/280
f 27/129/281 36/132/282 37/131/283 28/130/284
f 28/133/285 37/136/286 38/135/287 29/134/288
f 29/137/289 38/140/290 39/139/291 30/138/292
f 30/141/293 39/144/294 40/143/295 31/142/296
f 31/145/297 40/148/298 41/147/299 32/146/300
f 32/149/301 41/152/302 34/151/303 25/150/304
f 35/47/305 34/48/306 76/154/307 75/153/308
f 36/51/309 35/52/310 75/156/311 77/155/312
f 37/55/313 36/56/314 77/158/315 78/157/316
f 38/59/317 37/60/318 78/160/319 79/159/320
f 39/63/321 38/64/322 79/162/323 80/161/324
f 40/67/325 39/68/326 80/164/327 81/163/328
f 41/71/329 40/72/330 81/166/331 82/165/332
f 34/75/333 41/76/334 82/168/335 76/167/336
